<mxfile host="65bd71144e">
    <diagram id="De5U5WzSSHwUwAm8ybsi" name="第 1 页">
        <mxGraphModel dx="2784" dy="1280" grid="1" gridSize="10" guides="1" tooltips="1" connect="1" arrows="1" fold="1" page="1" pageScale="1" pageWidth="827" pageHeight="1169" math="0" shadow="0">
            <root>
                <mxCell id="0"/>
                <mxCell id="1" parent="0"/>
                <mxCell id="6" style="edgeStyle=none;html=1;exitX=0.5;exitY=1;exitDx=0;exitDy=0;fontSize=18;entryX=0.5;entryY=0;entryDx=0;entryDy=0;" parent="1" source="2" target="8" edge="1">
                    <mxGeometry relative="1" as="geometry">
                        <mxPoint x="414" y="280" as="targetPoint"/>
                    </mxGeometry>
                </mxCell>
                <mxCell id="7" value="case" style="edgeLabel;html=1;align=center;verticalAlign=middle;resizable=0;points=[];fontSize=18;" parent="6" vertex="1" connectable="0">
                    <mxGeometry x="-0.2364" y="4" relative="1" as="geometry">
                        <mxPoint x="-4" y="9" as="offset"/>
                    </mxGeometry>
                </mxCell>
                <mxCell id="2" value="&lt;font style=&quot;font-size: 18px;&quot;&gt;main()&lt;/font&gt;" style="rounded=1;whiteSpace=wrap;html=1;" parent="1" vertex="1">
                    <mxGeometry x="337" y="110" width="154" height="60" as="geometry"/>
                </mxCell>
                <mxCell id="3" value="&lt;font style=&quot;font-size: 18px;&quot;&gt;&lt;b&gt;program entrypotints&lt;/b&gt;&lt;/font&gt;" style="text;html=1;align=center;verticalAlign=middle;resizable=0;points=[];autosize=1;strokeColor=none;fillColor=none;" parent="1" vertex="1">
                    <mxGeometry x="60" y="40" width="210" height="40" as="geometry"/>
                </mxCell>
                <mxCell id="5" value="" style="shape=flexArrow;endArrow=classic;html=1;fontSize=18;entryX=0.5;entryY=0;entryDx=0;entryDy=0;" parent="1" target="2" edge="1">
                    <mxGeometry width="50" height="50" relative="1" as="geometry">
                        <mxPoint x="260" y="60" as="sourcePoint"/>
                        <mxPoint x="430" y="70" as="targetPoint"/>
                        <Array as="points">
                            <mxPoint x="414" y="60"/>
                        </Array>
                    </mxGeometry>
                </mxCell>
                <mxCell id="11" style="edgeStyle=none;html=1;exitX=0;exitY=1;exitDx=0;exitDy=0;fontSize=14;entryX=0.5;entryY=0;entryDx=0;entryDy=0;" parent="1" source="8" target="12" edge="1">
                    <mxGeometry relative="1" as="geometry">
                        <mxPoint x="240" y="420" as="targetPoint"/>
                        <Array as="points">
                            <mxPoint y="310"/>
                        </Array>
                    </mxGeometry>
                </mxCell>
                <mxCell id="13" style="edgeStyle=none;html=1;fontSize=14;exitX=0.227;exitY=1;exitDx=0;exitDy=0;exitPerimeter=0;entryX=0.5;entryY=0;entryDx=0;entryDy=0;" parent="1" source="8" target="15" edge="1">
                    <mxGeometry relative="1" as="geometry">
                        <mxPoint x="320" y="380" as="targetPoint"/>
                        <mxPoint x="365" y="340" as="sourcePoint"/>
                        <Array as="points">
                            <mxPoint x="354" y="360"/>
                            <mxPoint x="305" y="360"/>
                        </Array>
                    </mxGeometry>
                </mxCell>
                <mxCell id="18" style="edgeStyle=none;html=1;exitX=0.75;exitY=1;exitDx=0;exitDy=0;fontSize=14;" parent="1" source="8" target="17" edge="1">
                    <mxGeometry relative="1" as="geometry">
                        <Array as="points">
                            <mxPoint x="469" y="360"/>
                            <mxPoint x="515" y="360"/>
                        </Array>
                    </mxGeometry>
                </mxCell>
                <mxCell id="19" style="edgeStyle=none;html=1;exitX=1;exitY=1;exitDx=0;exitDy=0;entryX=0.5;entryY=0;entryDx=0;entryDy=0;fontSize=14;" parent="1" source="8" target="16" edge="1">
                    <mxGeometry relative="1" as="geometry">
                        <Array as="points">
                            <mxPoint x="705" y="310"/>
                            <mxPoint x="705" y="340"/>
                        </Array>
                    </mxGeometry>
                </mxCell>
                <mxCell id="8" value="&lt;font style=&quot;font-size: 14px;&quot;&gt;version/project/device/trailer&lt;/font&gt;" style="whiteSpace=wrap;html=1;fontSize=18;" parent="1" vertex="1">
                    <mxGeometry x="304" y="250" width="220" height="60" as="geometry"/>
                </mxCell>
                <mxCell id="10" value="&lt;span style=&quot;color: rgb(49, 51, 50); font-family: &amp;quot;Microsoft YaHei&amp;quot;, 微软雅黑, ff-yoga-web-pro, &amp;quot;Georgia,serif&amp;quot;, STXihei, 华文细黑, &amp;quot;Helvetica Neue&amp;quot;, &amp;quot;IBM Plex Mono&amp;quot;, &amp;quot;Space Grotesk&amp;quot;, &amp;quot;Roboto Slab&amp;quot;, &amp;quot;sans-serif&amp;quot;, Helvetica, Arial, &amp;quot;sans-serif&amp;quot;, &amp;quot;serif&amp;quot;; font-size: 16px; text-align: left; background-color: rgb(182, 255, 202);&quot;&gt;Conditions&lt;/span&gt;" style="text;html=1;align=center;verticalAlign=middle;resizable=0;points=[];autosize=1;strokeColor=none;fillColor=none;fontSize=18;" parent="1" vertex="1">
                    <mxGeometry x="265" y="220" width="100" height="40" as="geometry"/>
                </mxCell>
                <mxCell id="20" style="edgeStyle=none;html=1;exitX=0;exitY=1;exitDx=0;exitDy=0;fontSize=14;entryX=0.5;entryY=0;entryDx=0;entryDy=0;" parent="1" source="12" target="62" edge="1">
                    <mxGeometry relative="1" as="geometry">
                        <mxPoint y="520" as="targetPoint"/>
                    </mxGeometry>
                </mxCell>
                <mxCell id="21" style="edgeStyle=none;html=1;exitX=0.25;exitY=1;exitDx=0;exitDy=0;fontSize=14;entryX=0.5;entryY=0;entryDx=0;entryDy=0;" parent="1" source="12" target="63" edge="1">
                    <mxGeometry relative="1" as="geometry">
                        <mxPoint x="-60" y="520" as="targetPoint"/>
                    </mxGeometry>
                </mxCell>
                <mxCell id="22" style="edgeStyle=none;html=1;exitX=0.5;exitY=1;exitDx=0;exitDy=0;fontSize=14;entryX=0.5;entryY=0;entryDx=0;entryDy=0;" parent="1" source="12" target="68" edge="1">
                    <mxGeometry relative="1" as="geometry">
                        <mxPoint x="75" y="520" as="targetPoint"/>
                    </mxGeometry>
                </mxCell>
                <mxCell id="23" style="edgeStyle=none;html=1;exitX=0.75;exitY=1;exitDx=0;exitDy=0;fontSize=14;entryX=0.5;entryY=0;entryDx=0;entryDy=0;" parent="1" source="12" target="76" edge="1">
                    <mxGeometry relative="1" as="geometry">
                        <mxPoint x="70" y="520" as="targetPoint"/>
                    </mxGeometry>
                </mxCell>
                <mxCell id="24" style="edgeStyle=none;html=1;exitX=1;exitY=1;exitDx=0;exitDy=0;fontSize=14;entryX=0.5;entryY=0;entryDx=0;entryDy=0;" parent="1" source="12" target="77" edge="1">
                    <mxGeometry relative="1" as="geometry">
                        <mxPoint x="160" y="520" as="targetPoint"/>
                    </mxGeometry>
                </mxCell>
                <mxCell id="12" value="version" style="whiteSpace=wrap;html=1;fontSize=14;" parent="1" vertex="1">
                    <mxGeometry x="-55" y="400" width="110" height="50" as="geometry"/>
                </mxCell>
                <mxCell id="25" style="edgeStyle=none;html=1;exitX=0;exitY=1;exitDx=0;exitDy=0;fontSize=14;entryX=0.5;entryY=0;entryDx=0;entryDy=0;" parent="1" source="15" target="69" edge="1">
                    <mxGeometry relative="1" as="geometry">
                        <mxPoint x="210" y="520" as="targetPoint"/>
                    </mxGeometry>
                </mxCell>
                <mxCell id="26" style="edgeStyle=none;html=1;exitX=0.25;exitY=1;exitDx=0;exitDy=0;fontSize=14;entryX=0.5;entryY=0;entryDx=0;entryDy=0;" parent="1" source="15" target="70" edge="1">
                    <mxGeometry relative="1" as="geometry">
                        <mxPoint x="270" y="520" as="targetPoint"/>
                    </mxGeometry>
                </mxCell>
                <mxCell id="27" style="edgeStyle=none;html=1;exitX=0.5;exitY=1;exitDx=0;exitDy=0;fontSize=14;entryX=0.5;entryY=0;entryDx=0;entryDy=0;" parent="1" source="15" target="71" edge="1">
                    <mxGeometry relative="1" as="geometry">
                        <mxPoint x="320" y="520" as="targetPoint"/>
                    </mxGeometry>
                </mxCell>
                <mxCell id="28" style="edgeStyle=none;html=1;exitX=0.75;exitY=1;exitDx=0;exitDy=0;fontSize=14;entryX=0.5;entryY=0;entryDx=0;entryDy=0;" parent="1" source="15" target="72" edge="1">
                    <mxGeometry relative="1" as="geometry">
                        <mxPoint x="390" y="520" as="targetPoint"/>
                    </mxGeometry>
                </mxCell>
                <mxCell id="29" style="edgeStyle=none;html=1;exitX=1;exitY=1;exitDx=0;exitDy=0;fontSize=14;entryX=0.5;entryY=0;entryDx=0;entryDy=0;" parent="1" source="15" target="73" edge="1">
                    <mxGeometry relative="1" as="geometry">
                        <mxPoint x="430" y="520" as="targetPoint"/>
                    </mxGeometry>
                </mxCell>
                <mxCell id="15" value="project" style="whiteSpace=wrap;html=1;fontSize=14;" parent="1" vertex="1">
                    <mxGeometry x="250" y="400" width="110" height="50" as="geometry"/>
                </mxCell>
                <mxCell id="32" style="edgeStyle=none;html=1;exitX=0.25;exitY=1;exitDx=0;exitDy=0;fontSize=14;" parent="1" source="16" edge="1">
                    <mxGeometry relative="1" as="geometry">
                        <mxPoint x="678" y="520" as="targetPoint"/>
                    </mxGeometry>
                </mxCell>
                <mxCell id="33" style="edgeStyle=none;html=1;exitX=0.75;exitY=1;exitDx=0;exitDy=0;fontSize=14;" parent="1" source="16" edge="1">
                    <mxGeometry relative="1" as="geometry">
                        <mxPoint x="733" y="520" as="targetPoint"/>
                    </mxGeometry>
                </mxCell>
                <mxCell id="16" value="trailer" style="whiteSpace=wrap;html=1;fontSize=14;" parent="1" vertex="1">
                    <mxGeometry x="650" y="400" width="110" height="50" as="geometry"/>
                </mxCell>
                <mxCell id="30" style="edgeStyle=none;html=1;exitX=0.25;exitY=1;exitDx=0;exitDy=0;fontSize=14;" parent="1" source="17" edge="1">
                    <mxGeometry relative="1" as="geometry">
                        <mxPoint x="488" y="520" as="targetPoint"/>
                    </mxGeometry>
                </mxCell>
                <mxCell id="31" style="edgeStyle=none;html=1;exitX=0.75;exitY=1;exitDx=0;exitDy=0;fontSize=14;" parent="1" source="17" edge="1">
                    <mxGeometry relative="1" as="geometry">
                        <mxPoint x="543" y="520" as="targetPoint"/>
                    </mxGeometry>
                </mxCell>
                <mxCell id="17" value="device" style="whiteSpace=wrap;html=1;fontSize=14;" parent="1" vertex="1">
                    <mxGeometry x="460" y="400" width="110" height="50" as="geometry"/>
                </mxCell>
                <mxCell id="62" value="0.8" style="whiteSpace=wrap;html=1;aspect=fixed;fontSize=14;" parent="1" vertex="1">
                    <mxGeometry x="-140" y="520" width="40" height="40" as="geometry"/>
                </mxCell>
                <mxCell id="63" value="2.6" style="whiteSpace=wrap;html=1;aspect=fixed;fontSize=14;" parent="1" vertex="1">
                    <mxGeometry x="-80" y="520" width="40" height="40" as="geometry"/>
                </mxCell>
                <mxCell id="64" value="1" style="whiteSpace=wrap;html=1;aspect=fixed;fontSize=14;" parent="1" vertex="1">
                    <mxGeometry x="470" y="520" width="40" height="40" as="geometry"/>
                </mxCell>
                <mxCell id="65" value="2" style="whiteSpace=wrap;html=1;aspect=fixed;fontSize=14;" parent="1" vertex="1">
                    <mxGeometry x="524" y="520" width="40" height="40" as="geometry"/>
                </mxCell>
                <mxCell id="66" value="on" style="whiteSpace=wrap;html=1;aspect=fixed;fontSize=14;" parent="1" vertex="1">
                    <mxGeometry x="660" y="520" width="40" height="40" as="geometry"/>
                </mxCell>
                <mxCell id="67" value="off" style="whiteSpace=wrap;html=1;aspect=fixed;fontSize=14;" parent="1" vertex="1">
                    <mxGeometry x="710" y="520" width="40" height="40" as="geometry"/>
                </mxCell>
                <mxCell id="68" value="2.9" style="whiteSpace=wrap;html=1;aspect=fixed;fontSize=14;" parent="1" vertex="1">
                    <mxGeometry x="-20" y="520" width="40" height="40" as="geometry"/>
                </mxCell>
                <mxCell id="69" value="tj" style="whiteSpace=wrap;html=1;aspect=fixed;fontSize=14;" parent="1" vertex="1">
                    <mxGeometry x="180" y="520" width="40" height="40" as="geometry"/>
                </mxCell>
                <mxCell id="70" value="ck" style="whiteSpace=wrap;html=1;aspect=fixed;fontSize=14;" parent="1" vertex="1">
                    <mxGeometry x="230" y="520" width="40" height="40" as="geometry"/>
                </mxCell>
                <mxCell id="71" value="wh" style="whiteSpace=wrap;html=1;aspect=fixed;fontSize=14;" parent="1" vertex="1">
                    <mxGeometry x="285" y="520" width="40" height="40" as="geometry"/>
                </mxCell>
                <mxCell id="72" value="xm" style="whiteSpace=wrap;html=1;aspect=fixed;fontSize=14;" parent="1" vertex="1">
                    <mxGeometry x="337" y="520" width="40" height="40" as="geometry"/>
                </mxCell>
                <mxCell id="73" value="....." style="whiteSpace=wrap;html=1;aspect=fixed;fontSize=14;" parent="1" vertex="1">
                    <mxGeometry x="394" y="520" width="40" height="40" as="geometry"/>
                </mxCell>
                <mxCell id="76" value="2.10" style="whiteSpace=wrap;html=1;aspect=fixed;fontSize=14;" parent="1" vertex="1">
                    <mxGeometry x="40" y="520" width="40" height="40" as="geometry"/>
                </mxCell>
                <mxCell id="77" value="......" style="whiteSpace=wrap;html=1;aspect=fixed;fontSize=14;" parent="1" vertex="1">
                    <mxGeometry x="100" y="520" width="40" height="40" as="geometry"/>
                </mxCell>
                <mxCell id="93" style="edgeStyle=none;html=1;exitX=0.5;exitY=1;exitDx=0;exitDy=0;fontSize=14;entryX=0.5;entryY=0;entryDx=0;entryDy=0;" parent="1" source="83" target="101" edge="1">
                    <mxGeometry relative="1" as="geometry">
                        <mxPoint x="347.5" y="920" as="targetPoint"/>
                    </mxGeometry>
                </mxCell>
                <mxCell id="94" value="&lt;font style=&quot;font-size: 18px;&quot;&gt;Modify&lt;/font&gt;" style="edgeLabel;html=1;align=center;verticalAlign=middle;resizable=0;points=[];fontSize=14;" parent="93" vertex="1" connectable="0">
                    <mxGeometry x="-0.25" y="-2" relative="1" as="geometry">
                        <mxPoint x="2" y="15" as="offset"/>
                    </mxGeometry>
                </mxCell>
                <mxCell id="83" value="version/project/device/trailer" style="rounded=0;whiteSpace=wrap;html=1;fontSize=14;" parent="1" vertex="1">
                    <mxGeometry x="200" y="750" width="290" height="60" as="geometry"/>
                </mxCell>
                <mxCell id="89" style="edgeStyle=none;html=1;exitX=0.1;exitY=0.5;exitDx=0;exitDy=0;exitPerimeter=0;entryX=0.145;entryY=0.017;entryDx=0;entryDy=0;entryPerimeter=0;fontSize=14;" parent="1" source="84" target="83" edge="1">
                    <mxGeometry relative="1" as="geometry">
                        <Array as="points">
                            <mxPoint y="670"/>
                            <mxPoint x="240" y="670"/>
                        </Array>
                    </mxGeometry>
                </mxCell>
                <mxCell id="84" value="" style="shape=curlyBracket;whiteSpace=wrap;html=1;rounded=1;labelPosition=left;verticalLabelPosition=middle;align=right;verticalAlign=middle;fontSize=14;direction=north;size=0.5;" parent="1" vertex="1">
                    <mxGeometry x="-120" y="560" width="240" height="80" as="geometry"/>
                </mxCell>
                <mxCell id="91" style="edgeStyle=none;html=1;exitX=0.1;exitY=0.5;exitDx=0;exitDy=0;exitPerimeter=0;entryX=0.5;entryY=0;entryDx=0;entryDy=0;fontSize=14;" parent="1" source="85" target="83" edge="1">
                    <mxGeometry relative="1" as="geometry">
                        <Array as="points">
                            <mxPoint x="517" y="650"/>
                            <mxPoint x="345" y="650"/>
                        </Array>
                    </mxGeometry>
                </mxCell>
                <mxCell id="85" value="" style="shape=curlyBracket;whiteSpace=wrap;html=1;rounded=1;labelPosition=left;verticalLabelPosition=middle;align=right;verticalAlign=middle;fontSize=14;direction=north;size=0.5;" parent="1" vertex="1">
                    <mxGeometry x="484" y="560" width="66" height="80" as="geometry"/>
                </mxCell>
                <mxCell id="90" style="edgeStyle=none;html=1;exitX=0.1;exitY=0.5;exitDx=0;exitDy=0;exitPerimeter=0;entryX=0.25;entryY=0;entryDx=0;entryDy=0;fontSize=14;" parent="1" source="87" target="83" edge="1">
                    <mxGeometry relative="1" as="geometry">
                        <Array as="points">
                            <mxPoint x="310" y="660"/>
                            <mxPoint x="270" y="660"/>
                        </Array>
                    </mxGeometry>
                </mxCell>
                <mxCell id="87" value="" style="shape=curlyBracket;whiteSpace=wrap;html=1;rounded=1;labelPosition=left;verticalLabelPosition=middle;align=right;verticalAlign=middle;fontSize=14;direction=north;size=0.5;" parent="1" vertex="1">
                    <mxGeometry x="200" y="560" width="220" height="80" as="geometry"/>
                </mxCell>
                <mxCell id="92" style="edgeStyle=none;html=1;exitX=0.1;exitY=0.5;exitDx=0;exitDy=0;exitPerimeter=0;entryX=0.75;entryY=0;entryDx=0;entryDy=0;fontSize=14;" parent="1" source="88" target="83" edge="1">
                    <mxGeometry relative="1" as="geometry">
                        <Array as="points">
                            <mxPoint x="705" y="670"/>
                            <mxPoint x="418" y="670"/>
                        </Array>
                    </mxGeometry>
                </mxCell>
                <mxCell id="88" value="" style="shape=curlyBracket;whiteSpace=wrap;html=1;rounded=1;labelPosition=left;verticalLabelPosition=middle;align=right;verticalAlign=middle;fontSize=14;direction=north;size=0.5;" parent="1" vertex="1">
                    <mxGeometry x="672" y="565" width="66" height="65" as="geometry"/>
                </mxCell>
                <mxCell id="102" style="edgeStyle=none;html=1;exitX=0.25;exitY=1;exitDx=0;exitDy=0;fontSize=18;entryX=0.5;entryY=0;entryDx=0;entryDy=0;" parent="1" source="101" target="104" edge="1">
                    <mxGeometry relative="1" as="geometry">
                        <mxPoint x="170" y="1150" as="targetPoint"/>
                        <Array as="points">
                            <mxPoint x="315" y="980"/>
                            <mxPoint x="170" y="980"/>
                        </Array>
                    </mxGeometry>
                </mxCell>
                <mxCell id="103" style="edgeStyle=none;html=1;exitX=0.75;exitY=1;exitDx=0;exitDy=0;fontSize=18;entryX=0.5;entryY=0;entryDx=0;entryDy=0;" parent="1" source="101" target="105" edge="1">
                    <mxGeometry relative="1" as="geometry">
                        <mxPoint x="550" y="1140" as="targetPoint"/>
                        <Array as="points">
                            <mxPoint x="375" y="980"/>
                            <mxPoint x="540" y="980"/>
                        </Array>
                    </mxGeometry>
                </mxCell>
                <mxCell id="101" value="adjust_param" style="rounded=0;whiteSpace=wrap;html=1;fontSize=18;" parent="1" vertex="1">
                    <mxGeometry x="285" y="890" width="120" height="60" as="geometry"/>
                </mxCell>
                <mxCell id="104" value="modify_env" style="rounded=0;whiteSpace=wrap;html=1;fontSize=18;" parent="1" vertex="1">
                    <mxGeometry x="90" y="1050" width="160" height="60" as="geometry"/>
                </mxCell>
                <mxCell id="105" value="modify_conf" style="rounded=0;whiteSpace=wrap;html=1;fontSize=18;" parent="1" vertex="1">
                    <mxGeometry x="460" y="1050" width="160" height="60" as="geometry"/>
                </mxCell>
                <mxCell id="106" value="&lt;span style=&quot;color: rgb(49, 51, 50); font-family: &amp;quot;Microsoft YaHei&amp;quot;, 微软雅黑, ff-yoga-web-pro, &amp;quot;Georgia,serif&amp;quot;, STXihei, 华文细黑, &amp;quot;Helvetica Neue&amp;quot;, &amp;quot;IBM Plex Mono&amp;quot;, &amp;quot;Space Grotesk&amp;quot;, &amp;quot;Roboto Slab&amp;quot;, &amp;quot;sans-serif&amp;quot;, Helvetica, Arial, &amp;quot;sans-serif&amp;quot;, &amp;quot;serif&amp;quot;; font-size: 16px; font-style: normal; font-variant-ligatures: normal; font-variant-caps: normal; font-weight: 400; letter-spacing: normal; orphans: 2; text-align: left; text-indent: 0px; text-transform: none; widows: 2; word-spacing: 0px; -webkit-text-stroke-width: 0px; background-color: rgb(182, 255, 202); text-decoration-thickness: initial; text-decoration-style: initial; text-decoration-color: initial; float: none; display: inline !important;&quot;&gt;Function&lt;/span&gt;" style="text;whiteSpace=wrap;html=1;fontSize=18;" parent="1" vertex="1">
                    <mxGeometry x="265" y="860" width="90" height="50" as="geometry"/>
                </mxCell>
                <mxCell id="107" value="&lt;span style=&quot;color: rgb(49, 51, 50); font-family: &amp;quot;Microsoft YaHei&amp;quot;, 微软雅黑, ff-yoga-web-pro, &amp;quot;Georgia,serif&amp;quot;, STXihei, 华文细黑, &amp;quot;Helvetica Neue&amp;quot;, &amp;quot;IBM Plex Mono&amp;quot;, &amp;quot;Space Grotesk&amp;quot;, &amp;quot;Roboto Slab&amp;quot;, &amp;quot;sans-serif&amp;quot;, Helvetica, Arial, &amp;quot;sans-serif&amp;quot;, &amp;quot;serif&amp;quot;; font-size: 16px; font-style: normal; font-variant-ligatures: normal; font-variant-caps: normal; font-weight: 400; letter-spacing: normal; orphans: 2; text-align: left; text-indent: 0px; text-transform: none; widows: 2; word-spacing: 0px; -webkit-text-stroke-width: 0px; background-color: rgb(182, 255, 202); text-decoration-thickness: initial; text-decoration-style: initial; text-decoration-color: initial; float: none; display: inline !important;&quot;&gt;Function&lt;/span&gt;" style="text;whiteSpace=wrap;html=1;fontSize=18;" parent="1" vertex="1">
                    <mxGeometry x="60" y="1020" width="90" height="50" as="geometry"/>
                </mxCell>
                <mxCell id="108" value="&lt;span style=&quot;color: rgb(49, 51, 50); font-family: &amp;quot;Microsoft YaHei&amp;quot;, 微软雅黑, ff-yoga-web-pro, &amp;quot;Georgia,serif&amp;quot;, STXihei, 华文细黑, &amp;quot;Helvetica Neue&amp;quot;, &amp;quot;IBM Plex Mono&amp;quot;, &amp;quot;Space Grotesk&amp;quot;, &amp;quot;Roboto Slab&amp;quot;, &amp;quot;sans-serif&amp;quot;, Helvetica, Arial, &amp;quot;sans-serif&amp;quot;, &amp;quot;serif&amp;quot;; font-size: 16px; font-style: normal; font-variant-ligatures: normal; font-variant-caps: normal; font-weight: 400; letter-spacing: normal; orphans: 2; text-align: left; text-indent: 0px; text-transform: none; widows: 2; word-spacing: 0px; -webkit-text-stroke-width: 0px; background-color: rgb(182, 255, 202); text-decoration-thickness: initial; text-decoration-style: initial; text-decoration-color: initial; float: none; display: inline !important;&quot;&gt;Function&lt;/span&gt;" style="text;whiteSpace=wrap;html=1;fontSize=18;" parent="1" vertex="1">
                    <mxGeometry x="576.58" y="1020" width="90" height="50" as="geometry"/>
                </mxCell>
                <mxCell id="111" value="" style="shape=curlyBracket;whiteSpace=wrap;html=1;rounded=1;labelPosition=left;verticalLabelPosition=middle;align=right;verticalAlign=middle;fontSize=18;direction=north;" parent="1" vertex="1">
                    <mxGeometry x="170" y="1110" width="370" height="90" as="geometry"/>
                </mxCell>
                <mxCell id="117" style="edgeStyle=none;html=1;fontSize=18;entryX=-0.017;entryY=0.388;entryDx=0;entryDy=0;entryPerimeter=0;" parent="1" target="118" edge="1">
                    <mxGeometry relative="1" as="geometry">
                        <mxPoint x="582.5" y="1240" as="targetPoint"/>
                        <mxPoint x="430" y="1230" as="sourcePoint"/>
                        <Array as="points"/>
                    </mxGeometry>
                </mxCell>
                <mxCell id="116" value="&lt;span style=&quot;color: rgb(49, 51, 50); font-family: &amp;quot;Microsoft YaHei&amp;quot;, 微软雅黑, ff-yoga-web-pro, &amp;quot;Georgia,serif&amp;quot;, STXihei, 华文细黑, &amp;quot;Helvetica Neue&amp;quot;, &amp;quot;IBM Plex Mono&amp;quot;, &amp;quot;Space Grotesk&amp;quot;, &amp;quot;Roboto Slab&amp;quot;, &amp;quot;sans-serif&amp;quot;, Helvetica, Arial, &amp;quot;sans-serif&amp;quot;, &amp;quot;serif&amp;quot;; font-size: 16px; font-style: normal; font-variant-ligatures: normal; font-variant-caps: normal; font-weight: 400; letter-spacing: normal; orphans: 2; text-align: left; text-indent: 0px; text-transform: none; widows: 2; word-spacing: 0px; -webkit-text-stroke-width: 0px; background-color: rgb(182, 255, 202); text-decoration-thickness: initial; text-decoration-style: initial; text-decoration-color: initial; float: none; display: inline !important;&quot;&gt;Function&lt;/span&gt;" style="text;whiteSpace=wrap;html=1;fontSize=18;" parent="1" vertex="1">
                    <mxGeometry x="315" y="80" width="90" height="50" as="geometry"/>
                </mxCell>
                <mxCell id="118" value="" style="sketch=0;aspect=fixed;html=1;points=[];align=center;image;fontSize=12;image=img/lib/mscae/Docker.svg;" parent="1" vertex="1">
                    <mxGeometry x="560" y="1190" width="123.17" height="101" as="geometry"/>
                </mxCell>
                <mxCell id="119" value="start_container" style="rounded=0;whiteSpace=wrap;html=1;fontSize=18;" parent="1" vertex="1">
                    <mxGeometry x="283.5" y="1190" width="143" height="70" as="geometry"/>
                </mxCell>
            </root>
        </mxGraphModel>
    </diagram>
</mxfile>